<?xml version="1.0" standalone="no"?>
<!DOCTYPE svg PUBLIC "-//W3C//DTD SVG 20010904//EN"
 "http://www.w3.org/TR/2001/REC-SVG-20010904/DTD/svg10.dtd">
<svg version="1.0" xmlns="http://www.w3.org/2000/svg"
 width="363.000000pt" height="251.000000pt" viewBox="0 0 363.000000 251.000000"
 preserveAspectRatio="xMidYMid meet">
<metadata>
Created by potrace 1.15, written by Peter Selinger 2001-2017
</metadata>
<g transform="translate(0.000000,251.000000) scale(0.100000,-0.100000)"
fill="#000000" stroke="none">
<path d="M0 1255 l0 -1255 1815 0 1815 0 0 1255 0 1255 -1815 0 -1815 0 0
-1255z m2680 1077 c0 -413 -99 -761 -303 -1067 -142 -213 -355 -442 -514 -552
l-52 -36 -75 56 c-167 126 -367 334 -475 496 -54 80 -141 261 -176 366 -70
211 -106 439 -104 658 l2 142 8 -110 c25 -330 93 -591 216 -828 l48 -92 6 70
c9 93 24 149 61 215 l30 55 -32 -30 c-17 -16 -46 -51 -62 -77 -17 -27 -33 -48
-36 -48 -2 0 -1 26 3 58 9 75 48 192 90 269 29 54 33 66 24 95 -12 44 -11 124
2 173 15 53 50 135 58 135 4 0 17 -20 29 -45 27 -55 82 -117 129 -145 26 -15
33 -17 23 -6 -16 20 -18 19 60 44 161 52 245 56 379 18 l92 -27 126 16 c92 11
128 13 133 4 4 -6 7 -35 6 -65 -1 -46 -6 -58 -36 -89 -19 -20 -45 -38 -56 -41
-12 -3 -28 -19 -34 -35 -21 -49 -61 -73 -181 -108 -168 -48 -266 -98 -329
-168 -110 -123 -155 -282 -116 -408 l12 -40 8 60 c9 65 37 150 61 181 13 17
14 12 9 -51 -9 -98 23 -215 78 -288 12 -17 14 -10 15 51 1 39 6 78 11 88 8 14
13 7 26 -37 20 -73 81 -165 142 -217 59 -50 74 -54 40 -9 -84 112 -127 223
-128 332 -1 88 9 165 21 165 5 0 11 -32 14 -71 7 -78 33 -143 74 -180 l26 -24
-15 25 c-59 96 -68 251 -24 388 15 45 29 82 32 82 3 0 2 -20 -1 -44 -17 -110
61 -230 196 -301 84 -44 79 -46 138 72 122 243 187 513 207 856 l6 117 -193 0
c-317 0 -1039 28 -1219 47 l-65 7 45 7 c126 19 814 45 1243 47 l297 2 0 -158z
m-1462 -1860 c3 -20 -21 -113 -45 -179 -4 -10 7 -4 24 15 46 47 113 42 113
-10 0 -10 -11 -45 -25 -78 -31 -73 -32 -90 -5 -83 13 4 20 0 20 -9 0 -23 -22
-38 -55 -38 -61 0 -70 41 -30 129 14 30 23 57 19 60 -10 10 -91 -90 -115 -142
-17 -36 -28 -47 -45 -47 -13 0 -26 5 -29 10 -4 6 9 50 29 98 30 75 56 164 81
275 5 24 10 28 33 25 19 -2 28 -9 30 -26z m1614 13 c-1 -5 -24 -75 -52 -155
-27 -80 -50 -157 -50 -171 0 -23 3 -25 29 -21 27 4 33 12 56 76 14 39 24 82
23 96 -3 22 1 25 32 25 29 0 36 -4 38 -24 l4 -23 28 27 c34 33 79 32 96 -2
l11 -23 23 25 c31 34 87 35 99 3 10 -26 2 -57 -28 -115 -28 -56 -27 -71 4 -65
29 5 32 -4 8 -30 -23 -26 -69 -23 -88 5 -17 26 -11 56 24 125 12 23 17 42 11
42 -14 0 -89 -97 -113 -147 -15 -31 -27 -43 -43 -43 -35 0 -35 23 3 104 20 42
33 79 29 84 -11 10 -93 -84 -122 -140 -25 -49 -48 -60 -72 -36 -9 9 -15 9 -24
0 -19 -19 -66 -15 -80 7 -12 19 -12 19 -36 0 -30 -23 -79 -25 -104 -2 -23 20
-24 83 -2 129 9 18 34 49 55 69 32 29 47 35 82 35 43 0 44 1 57 43 7 23 21 59
32 80 16 32 23 38 46 35 15 -2 26 -7 24 -13z m-2486 -48 c48 -56 19 -140 -65
-184 -24 -13 -59 -23 -76 -23 -27 0 -35 -5 -45 -30 -24 -58 -69 -110 -94 -110
-34 0 -41 16 -18 40 21 23 35 52 84 180 27 70 37 86 57 88 39 6 44 -10 22 -68
-11 -30 -19 -56 -17 -58 8 -7 65 29 85 54 24 31 28 86 6 104 -20 17 -74 5
-115 -25 -26 -19 -37 -22 -52 -14 -28 15 -18 41 22 62 27 14 52 17 109 15 66
-3 76 -6 97 -31z m2177 27 c3 -4 -7 -43 -24 -87 -16 -44 -29 -82 -29 -84 0 -2
9 -3 21 -3 31 0 20 -34 -12 -38 -21 -2 -28 -10 -33 -34 -11 -55 -8 -88 9 -82
26 10 38 -6 19 -27 -19 -21 -73 -26 -92 -7 -14 14 -16 70 -3 116 l10 32 -40 0
c-37 0 -40 -2 -69 -60 -39 -76 -62 -100 -100 -100 -36 0 -38 15 -6 41 34 27
79 109 60 109 -21 0 -17 18 6 25 11 3 45 40 76 81 31 41 74 85 97 99 39 23 96
33 110 19z m-2066 -135 c13 -13 3 -53 -33 -135 -14 -31 -23 -58 -21 -61 8 -8
73 73 112 140 30 51 44 67 61 67 36 0 37 -15 4 -86 -36 -80 -40 -125 -10 -117
24 6 26 -9 4 -31 -18 -19 -65 -21 -82 -4 -7 7 -12 21 -12 32 0 17 -4 16 -33
-12 -59 -57 -129 -35 -108 34 5 16 19 51 30 79 12 27 20 59 17 71 -3 11 -3 24
1 28 10 10 58 7 70 -5z m271 -15 c3 -22 3 -22 28 3 17 16 33 23 52 21 23 -3
27 -8 27 -33 0 -27 -3 -30 -33 -30 -27 0 -39 -7 -62 -39 -16 -21 -39 -62 -51
-92 -18 -44 -27 -54 -46 -54 -36 0 -38 23 -8 99 20 49 26 80 22 105 -7 42 -1
48 38 44 22 -2 31 -9 33 -24z m304 9 c25 -23 23 -59 -7 -89 -21 -21 -28 -23
-46 -14 -11 6 -19 14 -17 18 2 4 10 19 17 35 18 35 8 44 -25 23 -27 -19 -63
-87 -64 -122 0 -32 22 -46 53 -35 14 5 28 15 32 20 11 18 35 12 35 -8 0 -50
-107 -81 -157 -46 -52 37 -31 139 41 203 29 25 46 32 78 32 25 0 49 -7 60 -17z
m563 7 c3 -4 -9 -37 -25 -74 -38 -84 -40 -116 -5 -112 14 2 31 8 37 14 19 19
46 14 50 -10 4 -27 26 -35 34 -14 4 10 -4 33 -18 54 -41 62 -43 88 -9 122 24
24 38 30 75 30 47 0 76 -18 76 -49 0 -44 -57 -57 -62 -13 -2 19 -9 27 -23 27
-31 0 -29 -31 4 -82 37 -56 39 -76 6 -108 -31 -32 -103 -35 -129 -6 -17 19
-18 19 -37 0 -25 -25 -64 -24 -82 1 l-14 20 -18 -20 c-12 -13 -31 -20 -56 -20
-33 0 -41 5 -55 31 -20 39 -12 90 22 142 38 58 75 76 156 75 38 0 70 -4 73 -8z
m429 -6 c44 -43 -11 -125 -93 -139 -30 -5 -41 -11 -41 -25 0 -27 24 -31 66 -9
40 20 58 14 52 -17 -8 -45 -124 -61 -165 -22 -47 44 -13 164 60 209 39 23 100
25 121 3z m1296 -8 c0 -13 -13 -53 -30 -88 -35 -74 -37 -88 -10 -88 11 0 20
-6 20 -13 0 -22 -23 -37 -57 -37 -57 0 -61 37 -14 144 14 33 20 59 16 78 -6
27 -5 28 34 28 37 0 41 -3 41 -24z m140 -4 l5 -24 24 26 c34 36 87 36 103 1 9
-21 7 -35 -15 -87 -36 -86 -37 -94 -9 -90 13 2 22 -2 22 -10 0 -23 -22 -38
-55 -38 -61 0 -70 41 -30 129 14 30 24 59 22 64 -5 15 -96 -92 -123 -145 -19
-37 -30 -48 -48 -48 -14 0 -26 5 -28 12 -2 6 11 47 29 92 21 50 32 91 29 107
-6 34 1 41 38 37 22 -2 32 -9 36 -26z"/>
</g>
</svg>
